<?xml version="1.0" encoding="utf-8"?>
<!-- Generator: Adobe Illustrator 24.0.2, SVG Export Plug-In . SVG Version: 6.00 Build 0)  -->
<svg version="1.1" id="Capa_1" xmlns="http://www.w3.org/2000/svg" xmlns:xlink="http://www.w3.org/1999/xlink" x="0px" y="0px"
	 viewBox="0 0 153 153" style="enable-background:new 0 0 153 153;" xml:space="preserve">
<style type="text/css">
	.st0{fill:none;stroke:#F8FAF6;stroke-width:3;stroke-miterlimit:10;}
	.st1{fill:#569644;stroke:#569644;stroke-width:3;stroke-miterlimit:10;}
</style>
<circle class="st1" cx="76.5" cy="76.5" r="75"/>
<g>
	<g>
		<g>
			<polyline class="st0" points="107.64,77.43 107.63,102.33 93.46,116.5 46.32,116.5 46.32,36.5 107.84,36.5 107.74,48.4 			"/>
			<polyline class="st0" points="107.64,102.33 93.46,102.33 93.46,116.5 			"/>
			<g>
				<line class="st0" x1="57.15" y1="98.59" x2="77.07" y2="98.59"/>
				<line class="st0" x1="57.15" y1="91.73" x2="86.22" y2="91.73"/>
				<line class="st0" x1="57.15" y1="78.02" x2="86.22" y2="78.02"/>
				<line class="st0" x1="57.15" y1="84.87" x2="86.22" y2="84.87"/>
			</g>
		</g>
		<g>
			<rect x="67" y="47.28" class="st0" width="9.61" height="21.09"/>
			<rect x="76.61" y="60.05" class="st0" width="9.61" height="8.32"/>
			<rect x="57.39" y="54.48" class="st0" width="9.61" height="13.89"/>
		</g>
	</g>
	<g>
		<circle class="st0" cx="107.64" cy="62.35" r="15.08"/>
		<line class="st0" x1="118.3" y1="51.69" x2="96.97" y2="73.02"/>
		<line class="st0" x1="122.3" y1="65.88" x2="107.64" y2="62.35"/>
	</g>
</g>
</svg>
