<svg version="1.2" xmlns="http://www.w3.org/2000/svg" viewBox="0 0 837 280" width="837" height="280">
	<title>logo-svg</title>
	<style>
		.s0 { fill: #122d14 } 
		.s1 { fill: #336600 } 
	</style>
	<g id="Layer">
		<path id="Layer" fill-rule="evenodd" class="s0" d="m216.5 119.1q15.3-15.3 38.9-15.3 23.5 0 38.8 15.3 15.3 15.4 15.3 38.7 0 23.4-15.2 38.8-15.1 15.3-38.9 15.3-23.8 0-39-15.3-15.1-15.4-15.2-38.8 0.1-23.3 15.3-38.7zm15.5 65.4q9.5 9.6 23.4 9.6 13.8 0 23.4-9.6 9.6-9.6 9.6-26.8 0-16.9-9.6-26.5-9.5-9.6-23.4-9.6-13.9 0-23.4 9.6-9.6 9.6-9.6 26.6 0 17.1 9.6 26.7z"/>
		<path id="Layer" fill-rule="evenodd" class="s0" d="m352.6 255.3h-12.8c-2.2 0-3.9-1.6-3.9-3.7v-140.9c0-2.1 1.7-3.7 3.9-3.7h12.3c2.1 0 3.9 1.6 3.9 3.7v12.2q4.6-8.1 13.8-13.2 9.3-5 21.6-5 22.9 0 35.8 15 12.8 15 12.8 38.1 0 23.2-13.3 38.4-13.3 15.3-35.9 15.3-11.7 0-20.7-4.7-9.1-4.6-13.7-11.8v56.7c0 2-1.7 3.6-3.8 3.6zm66.3-97.6q0-15.4-8.5-25.4-8.4-10.1-22.8-10.1-14 0-22.7 10.1-8.7 10-8.7 25.4 0 15.9 8.7 26 8.7 10 22.7 10 14.1 0 22.7-10 8.6-10.1 8.6-26z"/>
		<path id="Layer" fill-rule="evenodd" class="s0" d="m730.5 175l14.3 4.8q-4.6 14.1-17.2 23.1-12.5 9-30.3 9-22.3 0-37.8-14.7-15.5-14.7-15.5-39.7 0-23.2 15-38.4 15-15.3 35.6-15.3 24 0 37.5 14.5 13.4 14.5 13.4 38.8 0 1.6-0.1 2.9c-0.1 1.9-1.8 3.5-3.8 3.5h-76.2q0.2 13.5 9.3 22.2 9.1 8.6 22.6 8.6 20.8 0.1 28.4-17.3c0.8-1.7 2.9-2.6 4.8-2zm-64.5-27.6h57.9q-0.4-11.4-7.9-18.7-7.5-7.3-21.1-7.3-12.4 0-20.3 7.7-7.9 7.7-8.6 18.3z"/>
		<path id="Layer" class="s0" d="m830.7 107v14.5c0 2.1-2 3.8-4.2 3.7q-2.5-0.2-4.9-0.2c-19.3 0-29 11.9-29 32.7v47.3c0 2.1-1.7 3.7-3.9 3.7h-13c-2.1 0-3.8-1.6-3.8-3.7v-94.3c0-2.1 1.7-3.7 3.8-3.7h12.6c2.1 0 3.8 1.6 3.8 3.7v14c6.5-12.9 17.1-18.4 31.7-18.4q3.5 0.1 6.9 0.7z"/>
		<path id="Layer" fill-rule="evenodd" class="s0" d="m549.4 141v64c0 2.1-1.7 3.7-3.8 3.7h-12.4c-2.1 0-3.8-1.6-3.8-3.7v-10q-4.4 6.7-12.9 11.8-8.5 5.1-21.2 5.1-15.7 0-25.6-9-9.9-9-9.9-21.5 0-13.1 8.8-21 8.8-7.9 23.4-9.9l28.6-4q8.1-1 8.1-7.6 0-8-5.7-13.1-5.7-5.1-17.2-5.1-10.5 0-16.7 5.6-4.9 4.5-6.6 11.3c-0.5 2-2.5 3.2-4.6 2.8l-15.9-3.6q1.6-14.6 13.9-23.8 12.3-9.2 29.5-9.2 22.4 0 33.2 10.5 10.8 10.5 10.8 26.7zm-20.7 19.5l-32.3 4.7q-7.1 1-11.3 4.8-4.1 3.8-4.1 10.4 0 5.9 4.7 10.3 4.7 4.5 12.4 4.5 13.9 0 22.3-7.2 8.3-7.2 8.3-22.9c0 0 0-4.6 0-4.6z"/>
		<path id="Layer" class="s0" d="m622.7 55q-15 0-24.9 9.3-9.9 9.3-9.9 25.6v17.1h-15.7c-2.1 0-3.9 1.6-3.9 3.7v10.6c0 2 1.8 3.7 3.9 3.7h15.7v80c0 2.1 1.7 3.7 3.9 3.7h13.6c2.2 0 3.9-1.6 3.9-3.7v-80h21.7c2.1 0 3.8-1.7 3.8-3.7v-10.6c0-2.1-1.7-3.7-3.8-3.7h-21.7v-16.1q0-9.5 4.9-13.4c3-2.4 6.5-3.6 10.6-3.8v-0.1h6.2c2.1 0 3.8-1.7 3.8-3.7v-14.9z"/>
	</g>
	<g id="Layer">
		<path id="Layer" class="s1" d="m423.8 253.4v13.6h-4.9v-23.6h4.8v3.4q2.5-4.1 7.8-4.1 4.3 0 6.6 2.6 2.4 2.6 2.4 6.7v15h-5v-14.2q0-5.9-5.8-5.9-2.8 0-4.3 1.8-1.6 1.9-1.6 4.7z"/>
		<path id="Layer" fill-rule="evenodd" class="s1" d="m449.9 246.2q3.6-3.5 9.2-3.5 5.6 0 9.2 3.5 3.7 3.6 3.7 9 0 5.4-3.6 9-3.6 3.6-9.3 3.6-5.7 0-9.3-3.6-3.6-3.6-3.6-9 0-5.4 3.7-9zm3.6 15.2q2.3 2.2 5.6 2.2 3.3 0 5.6-2.2 2.2-2.2 2.2-6.2 0-3.9-2.2-6.2-2.3-2.2-5.6-2.2-3.3 0-5.6 2.2-2.3 2.3-2.3 6.2 0 4 2.3 6.2z"/>
		<path id="Layer" fill-rule="evenodd" class="s1" d="m483.1 276.3h-4.9v-32.9h4.8v3.7q1.1-1.9 3.3-3 2.2-1.2 5.1-1.2 5.5 0 8.5 3.5 3.1 3.4 3.1 8.8 0 5.4-3.2 8.9-3.1 3.5-8.5 3.5-2.8 0-5-1-2.1-1.1-3.2-2.8c0 0 0 12.5 0 12.5zm14.9-21.1q0-3.6-2-5.9-2.1-2.3-5.5-2.3-3.3 0-5.4 2.3-2.1 2.3-2.1 5.9 0 3.7 2.1 6 2.1 2.3 5.4 2.3 3.4 0 5.4-2.3 2.1-2.3 2.1-6z"/>
		<path id="Layer" fill-rule="evenodd" class="s1" d="m507.7 260.7q0-3.1 2.1-4.9 2.1-1.8 5.5-2.3l6.8-0.9q2-0.2 2-1.8 0-1.8-1.4-3-1.3-1.2-4-1.2-2.6 0-4 1.3-1.5 1.3-1.8 3.5l-4.7-1.1q0.4-3.4 3.3-5.5 3-2.1 7-2.1 5.4 0 7.9 2.4 2.6 2.4 2.6 6.2v11.8q0 2.2 0.3 3.9h-4.8q-0.3-1.4-0.3-3.2-1 1.6-3 2.8-2 1.2-5.1 1.2-3.7 0-6-2.1-2.4-2.1-2.4-5zm9.1 3.2q3.3 0 5.3-1.7 2-1.7 2-5.3v-1.1l-7.7 1.1q-1.7 0.2-2.7 1.1-1 0.9-1 2.4 0 1.4 1.2 2.4 1.1 1.1 2.9 1.1z"/>
		<path id="Layer" class="s1" d="m541.6 267h-5v-35.5h5z"/>
		<path id="Layer" class="s1" d="m575.7 247.6h-6.1v19.4h-5.1v-19.4h-4.6v-4.2h4.6v-4q0-3.7 2.4-5.9 2.3-2.2 5.9-2.2 2.3 0 2.9 0.5v4.2q-0.8-0.3-2.1-0.3-1.6 0-2.8 0.9-1.2 0.9-1.2 3.1v3.7h6.1c0 0 0 4.2 0 4.2z"/>
		<path id="Layer" fill-rule="evenodd" class="s1" d="m597.6 258.9l4.2 1.4q-1 3.3-4 5.4-3 2-7.3 2.1-5.2-0.1-8.9-3.5-3.7-3.4-3.7-9.2 0-5.4 3.5-8.9 3.6-3.5 8.5-3.5 5.7 0 8.9 3.3 3.2 3.4 3.2 9.1 0 0.8-0.1 1.4h-18.9q0 3.2 2.2 5.2 2.2 2 5.3 2 5.4 0 7.1-4.8zm-14.5-6.1h13.8q-0.1-2.7-1.9-4.4-1.8-1.7-5-1.7-3 0.1-4.8 1.8-1.9 1.8-2.1 4.3z"/>
		<path id="Layer" class="s1" d="m622.3 243.2v4.9q-1.1-0.2-2.2-0.2-6.9 0-6.9 7.3v11.8h-4.9v-23.6h4.8v4.1q2.3-4.5 7.5-4.5 0.9 0 1.7 0.2z"/>
		<path id="Layer" class="s1" d="m632.4 267h-4.9v-23.6h4.7v3.1q1.2-1.8 3.2-2.8 2.1-1 4.4-1 2.5 0 4.5 1.1 2.1 1.2 3.1 3.4 2.6-4.5 8.4-4.5 3.6 0 6.2 2.3 2.5 2.3 2.5 6.7v15.3h-4.9v-14.8q0-2.5-1.3-3.9-1.3-1.5-4-1.5-2.6 0-4.2 1.7-1.6 1.7-1.6 4.2v14.3h-4.9v-14.8q0-2.5-1.4-4-1.3-1.4-4-1.4-2.6 0-4.2 1.6-1.6 1.7-1.6 4.4v14.2z"/>
		<path id="Layer" fill-rule="evenodd" class="s1" d="m690 258.9l4.3 1.4q-1.1 3.3-4.1 5.4-3 2-7.2 2.1-5.3-0.1-9-3.5-3.7-3.4-3.7-9.2 0-5.4 3.5-8.9 3.6-3.5 8.5-3.5 5.7 0 8.9 3.3 3.2 3.4 3.2 9.1 0 0.8-0.1 1.4h-18.9q0 3.2 2.2 5.2 2.2 2 5.4 2 5.4 0 7-4.8zm-14.5-6.1h13.8q-0.1-2.7-1.9-4.4-1.8-1.7-5-1.7-2.9 0.1-4.8 1.8-1.9 1.8-2.1 4.3z"/>
		<path id="Layer" class="s1" d="m705.6 253.4v13.6h-4.9v-23.6h4.8v3.4q2.5-4.1 7.8-4.1 4.3 0 6.6 2.6 2.4 2.6 2.4 6.7v15h-5v-14.2q0-5.9-5.8-5.9-2.8 0-4.3 1.8-1.6 1.9-1.6 4.7z"/>
		<path id="Layer" class="s1" d="m736.7 236v7.4h5.4v4.2h-5.4v12.3q0 1.6 0.8 2.4 0.8 0.8 2.7 0.8 1.1 0 2-0.2v3.9q-1.3 0.5-3.4 0.5-3.2 0-5.1-1.8-1.9-1.8-1.9-5v-12.9h-4.8v-4.2h1.3q2 0 2.9-1 1-1 1-2.6v-3.9h4.5z"/>
		<path id="Layer" fill-rule="evenodd" class="s1" d="m747.1 260.7q0-3.1 2.1-4.9 2.1-1.8 5.6-2.3l6.8-0.9q1.9-0.2 1.9-1.8 0-1.8-1.4-3-1.3-1.2-4-1.2-2.6 0-4 1.3-1.5 1.3-1.8 3.5l-4.7-1.1q0.4-3.4 3.3-5.5 3-2.1 7-2.1 5.4 0 7.9 2.4 2.6 2.4 2.6 6.2v11.8q0 2.2 0.3 3.9h-4.8q-0.3-1.4-0.3-3.2-1 1.6-3 2.8-2 1.2-5.1 1.2-3.7 0-6-2.1-2.4-2.1-2.4-5zm9.1 3.2q3.3 0 5.3-1.7 2-1.7 2-5.3v-1.1l-7.7 1.1q-1.7 0.2-2.7 1.1-1 0.9-1 2.4 0 1.4 1.2 2.4 1.1 1.1 2.9 1.1z"/>
		<path id="Layer" fill-rule="evenodd" class="s1" d="m793.7 263.8v-0.4q-1 1.8-3 3.1-2 1.2-4.8 1.2-5.4-0.1-8.7-3.6-3.2-3.6-3.2-9 0-5.1 3.3-8.7 3.4-3.6 8.6-3.6 3.1 0 5 1.1 1.9 1.2 2.7 2.8v-15.2h4.8v31.1q0.1 2.4 0.3 4.4h-4.8q-0.2-1.4-0.2-3.2zm-14.7-8.7q0 3.8 1.9 6.1 2 2.4 5.5 2.4 3.3 0 5.3-2.4 2-2.4 2-6.1-0.1-3.7-2-6-1.9-2.2-5.3-2.2-3.3 0-5.4 2.3-2 2.3-2 5.9z"/>
		<path id="Layer" fill-rule="evenodd" class="s1" d="m808.4 246.2q3.6-3.5 9.2-3.5 5.6 0 9.2 3.5 3.7 3.6 3.7 9 0 5.4-3.6 9-3.6 3.6-9.3 3.6-5.6 0-9.2-3.6-3.7-3.6-3.6-9-0.1-5.4 3.6-9zm3.6 15.2q2.3 2.2 5.6 2.2 3.3 0 5.6-2.2 2.2-2.2 2.2-6.2 0-3.9-2.2-6.2-2.3-2.2-5.6-2.2-3.3 0-5.6 2.2-2.2 2.3-2.2 6.2 0 4 2.2 6.2z"/>
	</g>
	<g id="Layer">
		<path id="Layer" class="s1" d="m224.3 31.2c-1.1-1.6-3.5-2.3-6.8-1.8-3.1 0.5-6.7 2-10.1 4.2-3.3 2.3-6.1 5-7.7 7.8q-0.1 0.1-0.2 0.2c-0.5-1.3-1.4-2.4-2.5-3.1-3.4-2-8.5-0.3-13.5 3.9 1.5-3.1-0.1-8.2-4-12.2-2.2-2.3-4.8-3.8-7.3-4.5-2.6-0.7-4.7-0.3-6.1 1.1-1.4 1.4-1.8 3.6-1.2 6.1 0.6 2.5 2.1 5.1 4.3 7.3 3 3.1 6.6 4.8 9.6 4.8q1.2 0 2.2-0.4c-2.6 2.6-5.1 5.8-7.3 9.5-1.5 2.3-2.7 4.8-3.6 7.1v-0.5c0-3.2-2.6-5.8-5.8-5.8h-18.9c1.1-4.5-0.3-11.3-3.9-18.3q0.8-0.6 1.7-1.4c2.7-2.4 5.3-6 7.5-10.2 2.1-4.1 3.5-8.4 3.8-12 0.4-3.6-0.4-6.1-2.1-7-1.8-0.9-4.2 0-7 2.4-2.6 2.4-5.3 6-7.4 10.2-1.4 2.7-2.4 5.4-3.1 8-2.8-3.4-5.8-6.1-8.9-8-4.5-2.9-8.5-3.4-11.2-1.7-1.6 1.1-2.6 2.9-3 5.3-0.9-1.4-2-2.8-3.2-4.1-5.2-5.2-11.3-7.3-14-4.6-1.3 1.2-1.5 3.4-0.7 6.1 0.9 2.6 2.7 5.4 5.1 7.9 3.7 3.7 7.8 5.8 10.8 5.8 1.2 0 2.3-0.3 3-1 1.2 4 3.2 8.3 5.9 12.4 5.5 8.3 12.5 14.1 18.1 15.4q-0.1 0.3-0.1 0.6v96.2l-36.3-47.8c3.7-0.1 8.9-2.7 13.6-7.2 3.1-3.1 5.6-6.5 6.8-9.7 1.3-3.2 1.3-5.8-0.2-7.4-3-3.1-10.6-0.4-17.3 6-3.2 3-5.6 6.5-6.9 9.6q-0.5 1.3-0.7 2.5l-21.4-28.2v-11.4c2.5-1.3 5.2-3.2 7.8-5.6 3.1-3 5.6-6.5 6.9-9.6 1.3-3.3 1.2-5.9-0.3-7.4-3-3.1-10.6-0.5-17.3 5.9-2.7 2.6-4.9 5.5-6.3 8.3h-18.3c-1.9 0-3.6 1-4.7 2.4-1.9-3.8-4.8-7.9-8.5-11.7-4.8-4.8-10.1-8.5-15-10.3-5-1.9-9-1.7-11.3 0.6-2.3 2.3-2.6 6.3-0.8 11.3 1.8 5 5.3 10.3 10.1 15.1 7.1 7.3 15.3 11.6 21 11.6q1.9 0 3.4-0.7v56.4q-1-1.9-2.4-3.9c-2.6-3.6-5.6-6.5-8.6-8.2-3-1.8-5.6-2.1-7.4-0.8-1.7 1.2-2.2 3.8-1.5 7.2 0.6 3.3 2.4 7.2 5 10.7 2.5 3.6 5.6 6.5 8.5 8.2 1.8 1.1 3.5 1.6 4.9 1.6q0.8 0 1.5-0.3v58.8c0 3.2 2.6 5.8 5.8 5.8h21.7c3.2 0 5.8-2.6 5.8-5.8v-73.1l58.2 76.6c1 1.3 2.4 2.1 3.9 2.2v0.1h27.9c3.2 0 5.8-2.6 5.8-5.8v-75.8c0.7 0.6 1.8 0.8 2.9 0.8 3.7 0 9-2.6 13.8-7.2 3.2-3.1 5.6-6.5 6.9-9.7 1.3-3.2 1.2-5.9-0.3-7.4-2.9-3.1-10.5-0.5-17.2 6-2.7 2.5-4.8 5.3-6.1 7.9v-36.1q0.3 0.3 0.7 0.5 1.4 0.9 3.3 0.9c5.8 0 14-6.5 20-16.4 3.5-5.8 5.6-11.8 6.2-16.7 0.9 0.5 2 0.7 3.3 0.7 3.4 0 7.8-1.5 12.1-4.4 3.4-2.3 6.1-5 7.8-7.8 1.6-2.8 2-5.3 0.8-7z"/>
	</g>
</svg>