<?xml version="1.0" encoding="utf-8"?>
<!-- Generator: Adobe Illustrator 24.0.2, SVG Export Plug-In . SVG Version: 6.00 Build 0)  -->
<svg version="1.1" id="Capa_1" xmlns="http://www.w3.org/2000/svg" xmlns:xlink="http://www.w3.org/1999/xlink" x="0px" y="0px"
	 viewBox="0 0 150 150" style="enable-background:new 0 0 150 150;" xml:space="preserve">
<style type="text/css">
	.st0{fill:#569644;}
	.st1{fill:#569644;stroke:#F7F8F4;stroke-width:4;stroke-linejoin:bevel;stroke-miterlimit:10;}
</style>
<circle class="st0" cx="75" cy="75" r="75"/>
<g>
	<path class="st1" d="M74.92,112.85c-1.51,0-3.01,0.01-4.52,0c-1.38-0.01-2.05-0.6-2.31-2c-0.43-2.32-0.84-4.65-1.32-6.96
		c-0.06-0.3-0.38-0.65-0.66-0.78c-1.37-0.63-2.78-1.17-4.15-1.81c-0.4-0.19-0.67-0.18-1.03,0.08c-1.87,1.33-3.75,2.64-5.64,3.94
		c-1.29,0.89-2.05,0.82-3.12-0.28c-2.15-2.21-4.31-4.42-6.46-6.63c-0.99-1.03-1.07-1.88-0.28-3.08c1.27-1.94,2.55-3.87,3.85-5.78
		c0.29-0.43,0.29-0.74,0.09-1.21c-0.61-1.38-1.12-2.81-1.72-4.19c-0.13-0.29-0.47-0.61-0.77-0.68c-2.28-0.49-4.56-0.93-6.85-1.37
		c-1.25-0.24-1.85-0.96-1.86-2.28c-0.01-3.21-0.01-6.42,0-9.64c0-1.31,0.61-2.03,1.85-2.28c2.28-0.45,4.57-0.88,6.85-1.37
		c0.3-0.06,0.64-0.39,0.77-0.68c0.62-1.41,1.14-2.86,1.75-4.27c0.18-0.41,0.19-0.69-0.07-1.06c-1.3-1.92-2.58-3.85-3.85-5.78
		c-0.85-1.29-0.78-2.11,0.29-3.21c2.13-2.19,4.26-4.38,6.4-6.57c1.08-1.1,1.84-1.18,3.12-0.28c1.88,1.31,3.77,2.61,5.64,3.95
		c0.36,0.26,0.63,0.26,1.03,0.08c1.37-0.63,2.78-1.17,4.15-1.81c0.28-0.13,0.6-0.48,0.67-0.78c0.47-2.31,0.89-4.64,1.32-6.96
		c0.26-1.41,0.93-2,2.31-2c3.07-0.01,6.14-0.01,9.21,0c1.38,0,2.06,0.59,2.32,1.99c0.43,2.32,0.88,4.64,1.28,6.97
		c0.08,0.47,0.29,0.64,0.69,0.8c1.38,0.55,2.75,1.11,4.09,1.74c0.45,0.21,0.76,0.23,1.17-0.07c1.84-1.32,3.71-2.61,5.56-3.91
		c1.27-0.89,2.05-0.83,3.13,0.27c2.16,2.21,4.31,4.42,6.46,6.63c0.99,1.03,1.07,1.89,0.29,3.08c-1.29,1.96-2.58,3.91-3.9,5.86
		c-0.25,0.37-0.26,0.65-0.08,1.06c0.61,1.41,1.14,2.86,1.75,4.27c0.13,0.29,0.47,0.61,0.77,0.68c2.25,0.49,4.51,0.91,6.77,1.36
		c1.39,0.28,1.94,0.94,1.94,2.37c0.01,3.16,0.01,6.31,0,9.47c0,1.44-0.55,2.1-1.94,2.37c-2.26,0.45-4.52,0.87-6.77,1.36
		c-0.3,0.06-0.64,0.38-0.77,0.67c-0.62,1.41-1.14,2.86-1.75,4.27c-0.18,0.41-0.18,0.69,0.07,1.06c1.3,1.92,2.58,3.85,3.85,5.78
		c0.85,1.28,0.77,2.12-0.29,3.22c-2.13,2.19-4.26,4.38-6.4,6.57c-1.08,1.1-1.86,1.16-3.13,0.28c-1.86-1.3-3.72-2.58-5.56-3.9
		c-0.41-0.29-0.71-0.3-1.17-0.08c-1.31,0.63-2.66,1.19-4.01,1.72c-0.46,0.18-0.69,0.37-0.78,0.91c-0.39,2.3-0.84,4.59-1.27,6.88
		c-0.26,1.4-0.93,1.99-2.31,2C78.04,112.86,76.48,112.85,74.92,112.85z M74.95,91.07c8.44,0.13,15.6-7.13,15.69-15.92
		c0.09-8.82-6.89-16.14-15.48-16.23c-8.6-0.09-15.61,6.98-15.76,15.91C59.25,83.68,66.22,90.94,74.95,91.07z"/>
</g>
</svg>
