<?xml version="1.0" encoding="utf-8"?>
<!-- Generator: Adobe Illustrator 24.0.2, SVG Export Plug-In . SVG Version: 6.00 Build 0)  -->
<svg version="1.1" id="Capa_1" xmlns="http://www.w3.org/2000/svg" xmlns:xlink="http://www.w3.org/1999/xlink" x="0px" y="0px"
	 viewBox="0 0 150 150" style="enable-background:new 0 0 150 150;" xml:space="preserve">
<style type="text/css">
	.st0{fill:#569644;}
	.st1{fill:#569644;stroke:#F7F8F4;stroke-width:4;stroke-linejoin:bevel;stroke-miterlimit:10;}
	.st2{fill:#569644;stroke:#F7F8F4;stroke-width:4;stroke-miterlimit:10;}
</style>
<g>
	<circle class="st0" cx="75" cy="75" r="75"/>
	<polygon class="st1" points="85.36,85.78 85.36,68.12 65.23,68.12 65.23,85.78 42,115 108.59,115 	"/>
	<line class="st1" x1="55.48" y1="68.12" x2="94.52" y2="68.12"/>
	<path class="st1" d="M86.31,56.74H75.3V45.72C75.3,39.8,80.1,35,86.02,35h11.02v11.02C97.04,51.94,92.23,56.74,86.31,56.74z"/>
	<path class="st1" d="M64.28,56.74H75.3V45.72C75.3,39.8,70.5,35,64.57,35H53.56v11.02C53.56,51.94,58.36,56.74,64.28,56.74z"/>
	<line class="st2" x1="75.3" y1="56.74" x2="75.3" y2="104.04"/>
	<line class="st2" x1="53.23" y1="102" x2="97.04" y2="102"/>
</g>
</svg>
