<?xml version="1.0" encoding="utf-8"?>
<!-- Generator: Adobe Illustrator 24.0.2, SVG Export Plug-In . SVG Version: 6.00 Build 0)  -->
<svg version="1.1" id="Capa_1" xmlns="http://www.w3.org/2000/svg" xmlns:xlink="http://www.w3.org/1999/xlink" x="0px" y="0px"
	 viewBox="0 0 153 153" style="enable-background:new 0 0 153 153;" xml:space="preserve">
<style type="text/css">
	.st0{fill:none;stroke:#F8FAF6;stroke-width:3;stroke-linejoin:round;stroke-miterlimit:10;}
	.st1{fill:#569644;stroke:#569644;stroke-width:3;stroke-linejoin:round;stroke-miterlimit:10;}
	.st2{fill:none;stroke:#F8FAF6;stroke-width:3;stroke-linejoin:bevel;stroke-miterlimit:10;}
</style>
<circle class="st1" cx="76.5" cy="76.5" r="75"/>
<g>
	<polyline class="st0" points="107.22,49.67 107.26,36.5 45.74,36.5 45.74,116.5 92.89,116.5 107.05,102.33 107.16,68.59 	"/>
	<polyline class="st2" points="107.06,102.33 92.89,102.33 92.89,116.5 	"/>
</g>
<line class="st2" x1="56.58" y1="102.33" x2="76.5" y2="102.33"/>
<line class="st2" x1="56.58" y1="95.47" x2="96.42" y2="95.47"/>
<line class="st2" x1="56.58" y1="81.76" x2="96.42" y2="81.76"/>
<line class="st2" x1="56.58" y1="88.61" x2="96.42" y2="88.61"/>
<g>
	<line class="st2" x1="66.62" y1="55.7" x2="106.46" y2="55.7"/>
	<line class="st2" x1="66.62" y1="62.56" x2="106.46" y2="62.56"/>
</g>
<polygon class="st0" points="66.62,69.59 72.16,75.13 77.7,69.59 116.5,69.59 116.5,48.67 56.58,48.67 56.58,69.59 "/>
</svg>
